# xmcd CD database file
#
# Track frame offsets:
#	150
#	18682
#	35537
#	52065
#	71557
#	87027
#	105395
#	119117
#	133335
#	147817
#	158070
#	173522
#	199332
#
# Disc length: 2677 seconds
#
# Revision: 1
# Processed by: cddbd v1.5.1PL2 Copyright (c) Steve Scherf et al.
# Submitted via: CDex 1.50Beta7
#
DISCID=ba0a730d
DTITLE=Ivanildo - Sax de Ouro - Vol 8
DYEAR=1998
DGENRE=Blues
TTITLE0=Saxomaniaco - Siboney - Para vigo me you
TTITLE1=Eterna melodia
TTITLE2=The Shadow of your smile
TTITLE3=Danubio Azul - Valsa do imperador - Bodas de prata - Fascination
TTITLE4=Samba de verão - Garota de Ipanema - Wave
TTITLE5=Alguem me disse - only you
TTITLE6=Somewhere in time
TTITLE7=Petit fleur
TTITLE8=Theme from new york, new york
TTITLE9=Benzinho
TTITLE10=Royal cinema
TTITLE11=Leva meu samba - Saudade da Amelia - Atire a primeira pedra
TTITLE12=Saxomaniaco
EXTD=YEAR: 1998
EXTT0=
EXTT1=
EXTT2=
EXTT3=
EXTT4=
EXTT5=
EXTT6=
EXTT7=
EXTT8=
EXTT9=
EXTT10=
EXTT11=
EXTT12=
PLAYORDER=
